<svg width="13" height="14" viewBox="0 0 13 14" fill="none" xmlns="http://www.w3.org/2000/svg">
<path d="M6.854 0.146894C6.80756 0.100331 6.75238 0.0633877 6.69163 0.0381812C6.63089 0.0129748 6.56577 0 6.5 0C6.43423 0 6.36911 0.0129748 6.30837 0.0381812C6.24762 0.0633877 6.19245 0.100331 6.146 0.146894L0.146001 6.14689C0.099599 6.19341 0.0628209 6.24862 0.0377692 6.30936C0.0127175 6.3701 -0.00011655 6.43519 7.97495e-07 6.50089V13.5009C7.97495e-07 13.6335 0.0526792 13.7607 0.146447 13.8544C0.240216 13.9482 0.367393 14.0009 0.500001 14.0009H5C5.13261 14.0009 5.25979 13.9482 5.35355 13.8544C5.44732 13.7607 5.5 13.6335 5.5 13.5009V9.50089H7.5V13.5009C7.5 13.6335 7.55268 13.7607 7.64645 13.8544C7.74022 13.9482 7.86739 14.0009 8 14.0009H12.5C12.6326 14.0009 12.7598 13.9482 12.8536 13.8544C12.9473 13.7607 13 13.6335 13 13.5009V6.50089C13.0001 6.43519 12.9873 6.3701 12.9622 6.30936C12.9372 6.24862 12.9004 6.19341 12.854 6.14689L11.5 4.79389V1.50089C11.5 1.36829 11.4473 1.24111 11.3536 1.14734C11.2598 1.05357 11.1326 1.00089 11 1.00089H10C9.86739 1.00089 9.74022 1.05357 9.64645 1.14734C9.55268 1.24111 9.5 1.36829 9.5 1.50089V2.79389L6.854 0.146894ZM1 13.0009V6.70789L6.5 1.20789L12 6.70789V13.0009H8.5V9.00089C8.5 8.86829 8.44732 8.74111 8.35355 8.64734C8.25979 8.55357 8.13261 8.50089 8 8.50089H5C4.86739 8.50089 4.74022 8.55357 4.64645 8.64734C4.55268 8.74111 4.5 8.86829 4.5 9.00089V13.0009H1Z" fill="black"/>
</svg>
