<svg width="38" height="38" viewBox="0 0 38 38" fill="none" xmlns="http://www.w3.org/2000/svg">
<path d="M31.5231 28.5H8.03935M19.7812 28.5V19M24.8134 28.5V22.1667M14.749 28.5V22.1667M31.5231 34.8333V17.9392C32.1459 17.7249 32.7178 17.3966 33.2059 16.9732C33.694 16.5497 34.0887 16.0394 34.3672 15.4716C34.6458 14.9038 34.8029 14.2896 34.8293 13.6644C34.8558 13.0391 34.7511 12.4151 34.5214 11.8281C34.2916 11.2411 33.9413 10.7028 33.4906 10.2439C33.0398 9.7851 32.4975 9.41482 31.8947 9.15437C31.2919 8.89391 30.6405 8.74841 29.978 8.7262C29.3155 8.704 28.6549 8.80554 28.034 9.02499C27.4134 6.13382 23.9076 3.16666 19.7812 3.16666C15.6548 3.16666 12.149 6.13382 11.5284 9.02499C10.276 8.58827 8.8912 8.63902 7.67851 9.16607C6.46583 9.69313 5.52462 10.6533 5.06195 11.8354C4.59928 13.0175 4.65304 14.3247 5.21141 15.4693C5.76978 16.614 6.78702 17.5024 8.03935 17.9392V34.8333H31.5231Z" stroke="black" stroke-width="2"/>
</svg>
