<svg width="39" height="35" viewBox="0 0 39 35" fill="none" xmlns="http://www.w3.org/2000/svg">
<path d="M19.9644 19.8906C21.968 19.8906 23.8896 19.0947 25.3063 17.6779C26.7231 16.2611 27.5191 14.3396 27.5191 12.3359C27.5191 10.3323 26.7231 8.41075 25.3063 6.99397C23.8896 5.57719 21.968 4.78125 19.9644 4.78125C17.9607 4.78125 16.0392 5.57719 14.6224 6.99397C13.2056 8.41075 12.4097 10.3323 12.4097 12.3359C12.4097 14.3396 13.2056 16.2611 14.6224 17.6779C16.0392 19.0947 17.9607 19.8906 19.9644 19.8906ZM25.0008 12.3359C25.0008 13.6717 24.4702 14.9527 23.5257 15.8973C22.5812 16.8418 21.3001 17.3724 19.9644 17.3724C18.6286 17.3724 17.3476 16.8418 16.4031 15.8973C15.4585 14.9527 14.9279 13.6717 14.9279 12.3359C14.9279 11.0002 15.4585 9.71915 16.4031 8.77463C17.3476 7.83011 18.6286 7.29948 19.9644 7.29948C21.3001 7.29948 22.5812 7.83011 23.5257 8.77463C24.4702 9.71915 25.0008 11.0002 25.0008 12.3359ZM35.0738 32.4818C35.0738 35 32.5555 35 32.5555 35H7.37321C7.37321 35 4.85498 35 4.85498 32.4818C4.85498 29.9636 7.37321 22.4089 19.9644 22.4089C32.5555 22.4089 35.0738 29.9636 35.0738 32.4818ZM32.5555 32.4717C32.553 31.8522 32.1677 29.9887 30.4604 28.2814C28.8185 26.6395 25.7286 24.9271 19.9644 24.9271C14.1976 24.9271 11.1103 26.6395 9.46838 28.2814C7.76102 29.9887 7.37825 31.8522 7.37321 32.4717H32.5555Z" fill="black"/>
<path d="M1.88701 16.6708C0.845004 17.1624 0.368725 18.3426 0.823641 19.3069C1.19087 20.0854 2.39266 21.7771 6.52427 22.1112C6.59812 22.1168 6.67322 22.1028 6.74138 22.0707C6.80954 22.0385 6.86812 21.9895 6.91073 21.9289C9.28025 18.5278 8.73891 16.5245 8.37168 15.7461C7.91677 14.7818 6.70304 14.3988 5.66103 14.8904C4.61903 15.382 4.2732 16.8387 4.2732 16.8387C4.2732 16.8387 2.92902 16.1793 1.88701 16.6708Z" stroke="black" stroke-width="0.932862" stroke-linecap="round" stroke-linejoin="round"/>
<path d="M33.3639 6.77577C34.0773 6.06494 35.1308 5.82417 35.8723 5.22626C36.6549 4.60059 36.7538 3.04693 35.1625 2.59777C34.1201 2.30355 33.3886 2.93708 32.9908 3.52044L31.5804 2.40701C32.3837 1.23593 33.8881 0.459607 35.6212 0.948809C37.0707 1.35793 37.8801 2.2886 38.156 3.24585C38.3904 4.06672 38.2745 5.44493 37.3338 6.22943C36.29 7.09638 35.4881 7.2244 34.9101 7.80939C34.677 8.04547 34.5638 8.21041 34.3099 9.11L32.5274 8.60687C32.655 8.13102 32.7989 7.33818 33.3639 6.77577ZM33.9444 11.6318C33.7556 12.3005 33.0461 12.6908 32.3677 12.4993C31.6892 12.3078 31.2885 11.6041 31.4772 10.9355C31.6659 10.2669 32.3755 9.87649 33.0539 10.068C33.7324 10.2595 34.1331 10.9632 33.9444 11.6318Z" fill="black"/>
</svg>
