<svg width="43" height="43" viewBox="0 0 43 43" fill="none" xmlns="http://www.w3.org/2000/svg">
<path d="M38.2786 5.66374C37.2778 4.64684 35.927 4.04985 34.5013 3.99446C33.0757 3.93908 31.6826 4.42947 30.606 5.36567C29.5294 4.42947 28.1363 3.93908 26.7106 3.99446C25.285 4.04985 23.9341 4.64684 22.9334 5.66374C21.8814 6.73789 21.2922 8.18151 21.2922 9.685C21.2922 11.1885 21.8814 12.6321 22.9334 13.7063L30.6033 21.4773L30.606 21.4746L30.6086 21.476L38.2786 13.7063C39.3305 12.6321 39.9197 11.1885 39.9197 9.685C39.9197 8.18151 39.3305 6.73789 38.2786 5.66374ZM36.3837 11.8367L30.6086 17.6876L30.606 17.6849L30.6033 17.6876L24.8282 11.8367C24.2644 11.2624 23.9485 10.4898 23.9485 9.685C23.9485 8.88021 24.2644 8.10757 24.8282 7.53332C25.3906 6.98674 26.1438 6.68097 26.928 6.68097C27.7122 6.68097 28.4655 6.98674 29.0278 7.53332L30.5993 9.13942L30.606 9.13277L30.6126 9.13942L32.1828 7.53332C32.7452 6.98635 33.4987 6.68033 34.2833 6.68033C35.0678 6.68033 35.8213 6.98635 36.3837 7.53332C36.9475 8.10757 37.2634 8.88021 37.2634 9.685C37.2634 10.4898 36.9475 11.2624 36.3837 11.8367ZM21.2914 39.9203H18.63V33.267C18.629 32.2085 18.2081 31.1938 17.4596 30.4454C16.7112 29.697 15.6965 29.276 14.6381 29.275H9.31541C8.257 29.276 7.24223 29.697 6.49382 30.4454C5.74541 31.1938 5.32449 32.2085 5.32343 33.267V39.9203H2.66211V33.267C2.66422 31.503 3.36587 29.812 4.61315 28.5647C5.86043 27.3174 7.55149 26.6158 9.31541 26.6137H14.6381C16.402 26.6158 18.093 27.3174 19.3403 28.5647C20.5876 29.812 21.2892 31.503 21.2914 33.267V39.9203ZM11.9767 13.3071C12.7663 13.3071 13.5381 13.5412 14.1946 13.9798C14.851 14.4185 15.3627 15.0419 15.6648 15.7714C15.967 16.5008 16.046 17.3035 15.892 18.0778C15.738 18.8522 15.3578 19.5635 14.7995 20.1218C14.2412 20.6801 13.5299 21.0603 12.7555 21.2143C11.9812 21.3683 11.1785 21.2893 10.4491 20.9871C9.71963 20.685 9.09617 20.1733 8.65752 19.5169C8.21888 18.8604 7.98475 18.0886 7.98475 17.299C7.98475 16.2403 8.40533 15.2249 9.15397 14.4763C9.90262 13.7276 10.918 13.3071 11.9767 13.3071ZM11.9767 10.6457C10.6608 10.6457 9.37449 11.0359 8.28035 11.767C7.18622 12.4981 6.33345 13.5372 5.82988 14.7529C5.32631 15.9687 5.19455 17.3064 5.45127 18.597C5.70799 19.8876 6.34166 21.0731 7.27214 22.0036C8.20262 22.9341 9.38812 23.5678 10.6787 23.8245C11.9694 24.0812 13.3071 23.9495 14.5228 23.4459C15.7386 22.9423 16.7777 22.0895 17.5087 20.9954C18.2398 19.9013 18.63 18.6149 18.63 17.299C18.63 16.4253 18.4579 15.5601 18.1236 14.7529C17.7892 13.9457 17.2991 13.2123 16.6813 12.5944C16.0635 11.9766 15.3301 11.4865 14.5228 11.1522C13.7156 10.8178 12.8505 10.6457 11.9767 10.6457Z" fill="black"/>
</svg>
