<svg width="109" height="127" viewBox="0 0 109 127" fill="none" xmlns="http://www.w3.org/2000/svg">
<g clip-path="url(#clip0_1506_19233)">
<path d="M87.4229 43.8809H76.6693V40.4318C76.6693 34.6507 81.4878 29.9571 87.4228 29.9571H87.4229V43.8809V43.8809Z" fill="#2F2E41"/>
<path d="M85.0393 37.4419L86.8882 45.5424L76.0537 43.79L80.4688 36.1289L85.0393 37.4419Z" fill="#FFF2E2"/>
<path opacity="0.1" d="M85.0393 37.4419L86.8882 45.5424L76.0537 43.79L80.4688 36.1289L85.0393 37.4419Z" fill="#FFF2E2"/>
<path d="M74.6516 69.7227H85.0391V54.7477H74.6516V69.7227Z" fill="#FFF2E2"/>
<path d="M91.7911 81.9648L89.5058 93.9043C89.5058 93.9043 90.9601 102.201 86.5973 110.7L83.6888 119.402L79.3261 118.795C79.3261 118.795 82.0268 112.319 82.0268 109.486C82.0268 106.653 82.6501 95.7256 82.6501 95.7256L82.3384 83.2563L91.7911 81.9648Z" fill="#2F2E41"/>
<path d="M78.7027 118.593C78.7027 118.593 83.6887 116.771 84.1042 119.402L83.8964 120.616C83.8964 120.616 85.7662 126.08 83.0654 126.485C80.3647 126.889 77.8717 127.497 77.664 126.282C77.4562 125.068 77.4595 123.553 77.9772 122.489C78.495 121.426 78.7027 118.593 78.7027 118.593Z" fill="#2F2E41"/>
<path d="M76.0646 80.1133L74.8508 92.2008C74.8508 92.2008 71.0851 99.7764 72.849 109.122L73.1584 118.269L77.5223 118.867C77.5223 118.867 76.777 111.915 77.5859 109.194C78.3948 106.473 80.9161 95.8074 80.9161 95.8074L84.7755 83.9145L76.0646 80.1133Z" fill="#2F2E41"/>
<path d="M78.1788 118.842C78.1788 118.842 73.9095 115.742 72.7593 118.157L72.6122 119.379C72.6122 119.379 69.2562 124.121 71.7348 125.241C74.2135 126.362 76.4348 127.62 76.981 126.51C77.5272 125.4 77.9568 123.943 77.7631 122.782C77.5694 121.62 78.1788 118.842 78.1788 118.842Z" fill="#2F2E41"/>
<path d="M89.2981 62.8418C94.1842 67.2832 94.5467 74.3104 91.6872 82.6734C91.6872 82.6734 82.5462 88.7443 75.8982 81.0545L72.5742 65.4725L89.2981 62.8418Z" fill="#2F2E41"/>
<path d="M81.0924 41.1879L86.2861 41.9974L85.8706 54.7463L91.6876 66.0787L84.2086 69.7212C84.2086 69.7212 78.3916 58.9959 77.3529 52.3179C76.3141 45.6399 76.9374 40.7832 76.9374 40.7832L81.0924 41.1879Z" fill="#EF6430"/>
<path d="M77.1449 41.5942L71.9511 42.4036L72.3666 55.1525L71.1201 66.8896L74.0286 70.1275C74.0286 70.1275 79.8456 59.4022 80.8843 52.7242C81.9231 46.0462 81.2998 41.1895 81.2998 41.1895L77.1449 41.5942Z" fill="#EF6430"/>
<path d="M83.3777 41.8979L84.5204 41.5944C84.5204 41.5944 88.5715 41.0885 89.1947 42.7074C89.818 44.3263 89.6102 53.8374 89.6102 53.8374C89.6102 53.8374 90.6822 65.5107 86.5106 65.6438C82.339 65.7768 83.17 56.0634 83.17 56.0634L83.3777 41.8979Z" fill="#EF6430"/>
<path d="M83.2264 39.6662C86.1959 39.6662 88.6031 37.3213 88.6031 34.4288C88.6031 31.5363 86.1959 29.1914 83.2264 29.1914C80.2569 29.1914 77.8496 31.5363 77.8496 34.4288C77.8496 37.3213 80.2569 39.6662 83.2264 39.6662Z" fill="#FFF2E2"/>
<path d="M76.5211 42.3022L75.3784 41.9987C75.3784 41.9987 71.3273 41.4928 70.7041 43.1117C70.0808 44.7306 70.2886 54.2417 70.2886 54.2417C70.2886 54.2417 69.2166 65.915 73.3882 66.0481C77.5598 66.1811 76.7288 56.4677 76.7288 56.4677L76.5211 42.3022Z" fill="#EF6430"/>
<path d="M80.1205 41.6356C78.967 41.3506 77.6593 42.5506 77.1993 44.3167C77.0056 45.0197 76.9875 45.7577 77.1466 46.4689L76.651 48.4764L76.6145 48.4745L72.7051 57.4491C71.7961 59.5358 71.8921 61.9314 73.0515 63.8968C73.7412 65.066 74.6466 65.852 75.7097 65.0497C77.4736 63.7183 78.6258 56.0953 79.1519 51.7163L80.3682 47.2651C80.8565 46.7137 81.202 46.0565 81.376 45.3483C81.8361 43.583 81.274 41.9207 80.1205 41.6356V41.6356Z" fill="#A0616A"/>
<path d="M73.1536 38.9217C73.4271 38.1117 73.967 37.4025 74.2085 36.5829C74.5293 35.4947 75.2121 37.9089 75.2788 36.7786C75.4054 34.6301 79.3625 28.25 81.2842 27.1885C83.206 26.1269 83.7188 27.3006 85.6767 28.2976C85.6767 28.2976 87.4118 27.4731 88.5949 28.0421C89.7781 28.6111 90.0584 30.4057 90.5186 31.6103C90.8834 32.5651 91.2669 35.078 91.3888 36.0898C91.7284 38.9087 92.9267 40.1254 92.5785 42.9433C92.4699 43.8225 92.1268 44.7316 91.3888 45.2487C90.6509 45.7658 89.4586 45.7096 88.9729 44.9611C88.8071 44.7056 88.737 44.4026 88.5949 44.134C88.4529 43.8653 88.1962 43.6149 87.8861 43.6233C87.42 43.6358 87.1827 44.245 87.3665 44.6625C87.5503 45.0799 87.9823 45.3319 88.3878 45.5561C87.422 45.9794 86.2238 45.8476 85.3792 45.2251C84.5346 44.6027 84.0785 43.5155 84.2339 42.4951C84.4529 41.057 86.6036 41.3547 86.857 39.922C87.0414 38.8791 87.6891 37.134 87.5127 36.0898C87.3363 35.0456 86.489 36.3099 87.3815 35.7066C86.3995 36.1677 84.2991 33.0131 83.2711 32.6598C82.2431 32.3065 81.3714 31.5414 80.904 30.5821C79.8136 32.1217 78.8545 31.7036 78.464 33.535C78.0735 35.3663 78.4345 39.5269 80.0424 40.5494C79.399 40.977 78.886 41.5886 78.5841 42.2881C78.413 42.6844 78.3021 43.118 78.0182 43.4471C77.476 44.0756 76.4748 44.1139 75.6768 43.8496C74.6873 43.5219 73.8413 42.8021 73.3749 41.8911C72.9084 40.9801 72.8271 39.8888 73.1536 38.9217Z" fill="#2F2E41"/>
<path d="M0 126.708C0 126.841 0.110114 126.948 0.247235 126.948H108.753C108.89 126.948 109 126.841 109 126.708C109 126.574 108.89 126.467 108.753 126.467H0.247235C0.110114 126.467 0 126.574 0 126.708Z" fill="#3F3D56"/>
<path d="M70.6435 0.203125H27.9158C23.0705 0.203125 19.1426 4.02921 19.1426 8.74893V118.113C19.1426 122.833 23.0705 126.659 27.9158 126.659H70.6435C75.4888 126.659 79.4167 122.833 79.4167 118.113V8.74893C79.4167 4.02921 75.4888 0.203125 70.6435 0.203125H70.6435Z" fill="white"/>
<path d="M70.6433 126.86H27.9156C22.9635 126.86 18.9346 122.936 18.9346 118.112V8.74818C18.9346 3.92445 22.9635 0 27.9156 0H70.6433C75.5954 0 79.6243 3.92445 79.6243 8.74818V118.112C79.6243 122.936 75.5954 126.86 70.6433 126.86H70.6433ZM27.9156 0.404727C23.1926 0.404727 19.3501 4.14757 19.3501 8.74818V118.112C19.3501 122.713 23.1926 126.455 27.9156 126.455H70.6433C75.3663 126.455 79.2088 122.713 79.2088 118.112V8.74818C79.2088 4.14756 75.3663 0.404727 70.6433 0.404727H27.9156Z" fill="#3F3D56"/>
<path d="M15.6108 19.1367C15.2357 19.1367 14.9307 19.4339 14.9307 19.7992V25.0994C14.9307 25.4648 15.2357 25.762 15.6108 25.762C15.9859 25.762 16.291 25.4648 16.291 25.0994V19.7992C16.291 19.4339 15.9859 19.1367 15.6108 19.1367Z" fill="#3F3D56"/>
<path d="M73.7383 17.6987H56.5641C55.8356 17.6987 55.243 17.1214 55.243 16.4118C55.243 15.7023 55.8356 15.125 56.5641 15.125H73.7383C74.4667 15.125 75.0594 15.7023 75.0594 16.4118C75.0594 17.1214 74.4667 17.6987 73.7383 17.6987Z" fill="#E6E6E6"/>
<path d="M57.6264 27.819H40.9323C40.5114 27.819 40.1689 27.4854 40.1689 27.0754C40.1689 26.6655 40.5114 26.332 40.9323 26.332H57.6264C58.0473 26.332 58.3896 26.6655 58.3896 27.0754C58.3896 27.4854 58.0473 27.819 57.6264 27.819Z" fill="#EF6430"/>
<path d="M16.2718 31.4883C23.7181 31.4883 29.7545 25.7323 29.7545 18.6319C29.7545 11.5314 23.7181 5.77539 16.2718 5.77539C8.82549 5.77539 2.78906 11.5314 2.78906 18.6319C2.78906 25.7323 8.82549 31.4883 16.2718 31.4883Z" fill="#EF6430"/>
<path d="M20.8483 12.1475C19.0534 15.3312 17.2584 18.515 15.4634 21.6987C14.3194 19.7298 13.1816 17.7574 12.0348 15.79C11.6388 15.1106 10.5614 15.7217 10.9585 16.4029C12.2879 18.6835 13.6036 20.9717 14.933 23.2523C15.1603 23.6422 15.7843 23.6513 16.0093 23.2523C17.9811 19.755 19.9529 16.2576 21.9246 12.7603C22.311 12.075 21.235 11.4617 20.8483 12.1475H20.8483Z" fill="white"/>
<path d="M34.0311 2.9668H24.5C24.4644 2.9668 24.4355 2.9949 24.4355 3.02957V4.11037C24.4355 4.14504 24.4644 4.17315 24.5 4.17315H34.0311C34.0667 4.17315 34.0955 4.14504 34.0955 4.11037V3.02957C34.0955 2.9949 34.0667 2.9668 34.0311 2.9668Z" fill="#E6E6E6"/>
<path d="M66.1343 4.17234C66.6814 4.17234 67.125 3.74026 67.125 3.20727C67.125 2.67427 66.6814 2.24219 66.1343 2.24219C65.5871 2.24219 65.1435 2.67427 65.1435 3.20727C65.1435 3.74026 65.5871 4.17234 66.1343 4.17234Z" fill="#E6E6E6"/>
<path d="M68.859 4.17234C69.4061 4.17234 69.8497 3.74026 69.8497 3.20727C69.8497 2.67427 69.4061 2.24219 68.859 2.24219C68.3118 2.24219 67.8682 2.67427 67.8682 3.20727C67.8682 3.74026 68.3118 4.17234 68.859 4.17234Z" fill="#E6E6E6"/>
<path d="M71.5837 4.17234C72.1309 4.17234 72.5744 3.74026 72.5744 3.20727C72.5744 2.67427 72.1309 2.24219 71.5837 2.24219C71.0365 2.24219 70.5929 2.67427 70.5929 3.20727C70.5929 3.74026 71.0365 4.17234 71.5837 4.17234Z" fill="#E6E6E6"/>
<path d="M27.8115 31.7994C27.8115 31.933 27.9216 32.0402 28.0588 32.0402H70.4999C70.637 32.0402 70.7471 31.933 70.7471 31.7994C70.7471 31.6659 70.637 31.5586 70.4999 31.5586H28.0588C27.9216 31.5586 27.8115 31.6659 27.8115 31.7994Z" fill="#3F3D56"/>
<path d="M66.4303 50.7252H40.9606C40.5397 50.7252 40.1973 50.3916 40.1973 49.9817C40.1973 49.5717 40.5397 49.2383 40.9606 49.2383H66.4303C66.8512 49.2383 67.1935 49.5717 67.1935 49.9817C67.1935 50.3916 66.8512 50.7252 66.4303 50.7252Z" fill="#EF6430"/>
<path d="M66.4303 61.4518H40.9606C40.5397 61.4518 40.1973 61.1182 40.1973 60.7082C40.1973 60.2983 40.5397 59.9648 40.9606 59.9648H66.4303C66.8512 59.9648 67.1935 60.2983 67.1935 60.7082C67.1935 61.1182 66.8512 61.4518 66.4303 61.4518Z" fill="#EF6430"/>
<path d="M66.4303 72.1764H40.9606C40.5397 72.1764 40.1973 71.8428 40.1973 71.4328C40.1973 71.0229 40.5397 70.6895 40.9606 70.6895H66.4303C66.8512 70.6895 67.1935 71.0229 67.1935 71.4328C67.1935 71.8428 66.8512 72.1764 66.4303 72.1764Z" fill="#EF6430"/>
<path d="M33.235 51.7109C34.2676 51.7109 35.1047 50.8955 35.1047 49.8896C35.1047 48.8838 34.2676 48.0684 33.235 48.0684C32.2023 48.0684 31.3652 48.8838 31.3652 49.8896C31.3652 50.8955 32.2023 51.7109 33.235 51.7109Z" fill="#EF6430"/>
<path d="M33.0273 52.9256V52.5209C34.5738 52.5209 35.832 51.2953 35.832 49.789C35.832 48.2826 34.5738 47.0571 33.0273 47.0571V46.6523C34.803 46.6523 36.2475 48.0594 36.2475 49.789C36.2475 51.5186 34.803 52.9256 33.0273 52.9256Z" fill="#3F3D56"/>
<path d="M33.235 62.4375C34.2676 62.4375 35.1047 61.6221 35.1047 60.6162C35.1047 59.6103 34.2676 58.7949 33.235 58.7949C32.2023 58.7949 31.3652 59.6103 31.3652 60.6162C31.3652 61.6221 32.2023 62.4375 33.235 62.4375Z" fill="#EF6430"/>
<path d="M33.0273 63.6502V63.2455C34.5738 63.2455 35.832 62.0201 35.832 60.5136C35.832 59.0072 34.5738 57.7817 33.0273 57.7817V57.377C34.803 57.377 36.2475 58.784 36.2475 60.5136C36.2475 62.2432 34.803 63.6502 33.0273 63.6502Z" fill="#3F3D56"/>
<path d="M33.235 73.1621C34.2676 73.1621 35.1047 72.3467 35.1047 71.3408C35.1047 70.3349 34.2676 69.5195 33.235 69.5195C32.2023 69.5195 31.3652 70.3349 31.3652 71.3408C31.3652 72.3467 32.2023 73.1621 33.235 73.1621Z" fill="#EF6430"/>
<path d="M33.0273 74.3768V73.9721C34.5738 73.9721 35.832 72.7466 35.832 71.2402C35.832 69.7337 34.5738 68.5082 33.0273 68.5082V68.1035C34.803 68.1035 36.2475 69.5106 36.2475 71.2402C36.2475 72.9697 34.803 74.3768 33.0273 74.3768Z" fill="#3F3D56"/>
<path d="M79.7784 41.2313C80.9319 40.9463 82.2396 42.1463 82.6996 43.9124C82.8933 44.6154 82.9114 45.3534 82.7523 46.0646L83.2479 48.0721L83.2844 48.0702L87.1938 57.0448C88.1029 59.1315 88.0068 61.5271 86.8474 63.4925C86.1577 64.6617 85.2523 65.4477 84.1892 64.6454C82.4253 63.314 81.2731 55.691 80.747 51.312L79.5307 46.8608C79.0424 46.3094 78.6969 45.6522 78.5229 44.944C78.0628 43.1787 78.625 41.5164 79.7784 41.2313V41.2313Z" fill="#FFF2E2"/>
<path d="M84.2196 46.1504L79.8457 49.1789L82.0327 62.5944L84.7755 66.0498L87.9706 64.9734L88.9048 58.6316L87.8054 52.4985L84.2196 46.1504Z" fill="#EF6430"/>
</g>
<defs>
<clipPath id="clip0_1506_19233">
<rect width="109" height="127" fill="white"/>
</clipPath>
</defs>
</svg>
