<svg width="138" height="114" viewBox="0 0 138 114" fill="none" xmlns="http://www.w3.org/2000/svg">
<g clip-path="url(#clip0_1506_19333)">
<path d="M88.6257 102.936L88.287 98.5225C86.069 97.4833 83.6139 96.9672 81.1348 97.0192C84.6225 99.546 84.3432 104.596 86.7586 108.052C87.5208 109.125 88.5307 110.023 89.7135 110.68C90.8963 111.337 92.2217 111.736 93.5915 111.848L96.4941 113.413C96.8262 111.356 96.6785 109.256 96.0613 107.258C95.4441 105.259 94.372 103.41 92.9189 101.838C92.0944 100.963 91.1556 100.189 90.1248 99.5347C89.4904 101.242 88.6257 102.936 88.6257 102.936Z" fill="#F2F2F2"/>
<path d="M71.3359 114.001H137.788C137.844 114.001 137.898 113.98 137.938 113.942C137.978 113.905 138 113.854 138 113.801C138 113.748 137.978 113.697 137.938 113.66C137.898 113.623 137.844 113.602 137.788 113.602H71.3359C71.2795 113.602 71.2253 113.623 71.1854 113.66C71.1455 113.697 71.123 113.748 71.123 113.801C71.123 113.854 71.1455 113.905 71.1854 113.942C71.2253 113.98 71.2795 114.001 71.3359 114.001Z" fill="#CCCCCC"/>
<path d="M29.0261 66.3684V66.4538H29.0896C29.0666 66.4266 29.0454 66.398 29.0261 66.3684ZM29.5148 30.1558C25.0791 35.5625 22.6781 42.1936 22.6865 49.0139C22.6875 50.0525 22.7418 51.0764 22.8494 52.0857C22.866 52.2591 22.8853 52.4325 22.9102 52.6033C23.5265 57.6225 25.4505 62.4226 28.5126 66.5806C28.6312 66.7436 28.7527 66.9041 28.8743 67.0645C30.1925 68.7967 31.6974 70.3971 33.3652 71.8405C46.7915 83.4604 67.726 82.6789 80.1238 70.095C80.3143 69.9061 80.4966 69.7145 80.676 69.523C85.7505 64.1366 88.6698 57.2645 88.9342 50.0831C89.1987 42.9017 86.7918 35.8573 82.1256 30.1558C81.9847 29.9824 81.8413 29.809 81.6922 29.6382C81.3654 29.2526 81.0267 28.8748 80.676 28.5047C80.4966 28.3132 80.3143 28.1217 80.1238 27.9328C77.0283 24.7861 73.2704 22.2752 69.0873 20.5585C64.9042 18.8418 60.3867 17.9567 55.8202 17.959C55.5027 17.959 55.1879 17.9642 54.8731 17.9719C54.6632 17.9771 54.4534 17.9849 54.2436 17.9952C49.5434 18.2043 44.9448 19.3511 40.7551 21.3589C36.5655 23.3667 32.8812 26.1893 29.9483 29.6382C29.7992 29.809 29.6557 29.9824 29.5148 30.1558L29.5148 30.1558ZM29.0896 66.4538C29.0666 66.4266 29.0454 66.398 29.0261 66.3684V66.4538H29.0896Z" fill="white"/>
<path d="M28.7943 66.0488L28.8882 65.8703L35.918 52.6021V52.5995L36.1915 52.0845V52.0819L47.8047 30.1546V30.152L48.0781 29.637L48.0808 29.6344L53.9621 18.5245L54.2438 17.994C54.4536 17.9836 54.6635 17.9759 54.8732 17.9707L54.5944 18.4986L48.6967 29.6344V29.637L48.4233 30.152V30.1546L36.5061 52.6538L36.5034 52.6564L29.4736 65.935L29.1974 66.4526L29.1532 66.5379L28.8744 67.0633C28.7528 66.9028 28.6313 66.7424 28.5127 66.5794L28.7943 66.0488Z" fill="#3F3D56"/>
<path d="M36.3876 52.084V52.6016H22.9104C22.8855 52.4308 22.8662 52.2574 22.8496 52.084H36.3876Z" fill="#3F3D56"/>
<path d="M57.332 56.1231V55.6055H70.8092C70.8341 55.7763 70.8534 55.9497 70.87 56.1231H57.332Z" fill="#3F3D56"/>
<path d="M68.6045 54.3184H69.1567V66.95C68.9745 66.9733 68.7895 66.9914 68.6045 67.0069V54.3184Z" fill="#3F3D56"/>
<path d="M82.1257 30.1547C81.9848 29.9813 81.8413 29.8079 81.6922 29.6371H80.676V28.5036C80.4966 28.3121 80.3143 28.1206 80.1238 27.9316V29.6371H29.9483C29.7992 29.8079 29.6557 29.9813 29.5149 30.1547H80.1238V70.0938C80.3143 69.9049 80.4966 69.7134 80.6761 69.5219V30.1547H82.1257Z" fill="#3F3D56"/>
<path d="M80.3998 65.9355H29.0254V66.4531H80.3998V65.9355Z" fill="#3F3D56"/>
<path d="M29.0261 66.3684V66.4538H29.0896C29.0666 66.4266 29.0454 66.398 29.0261 66.3684ZM29.5148 30.1558C25.0791 35.5625 22.6781 42.1936 22.6865 49.0139C22.6875 50.0525 22.7418 51.0764 22.8494 52.0857C22.866 52.2591 22.8853 52.4325 22.9102 52.6033C23.5265 57.6225 25.4505 62.4226 28.5126 66.5806C28.6312 66.7436 28.7527 66.9041 28.8743 67.0645C30.1925 68.7967 31.6974 70.3971 33.3652 71.8405C46.7915 83.4604 67.726 82.6789 80.1238 70.095C80.3143 69.9061 80.4966 69.7145 80.676 69.523C85.7505 64.1366 88.6698 57.2645 88.9342 50.0831C89.1987 42.9017 86.7918 35.8573 82.1256 30.1558C81.9847 29.9824 81.8413 29.809 81.6922 29.6382C81.3654 29.2526 81.0267 28.8748 80.676 28.5047C80.4966 28.3132 80.3143 28.1217 80.1238 27.9328C77.0283 24.7861 73.2704 22.2752 69.0873 20.5585C64.9042 18.8418 60.3867 17.9567 55.8202 17.959C55.5027 17.959 55.1879 17.9642 54.8731 17.9719C54.6632 17.9771 54.4534 17.9849 54.2436 17.9952C49.5434 18.2043 44.9448 19.3511 40.7551 21.3589C36.5655 23.3667 32.8812 26.1893 29.9483 29.6382C29.7992 29.809 29.6557 29.9824 29.5148 30.1558L29.5148 30.1558ZM23.4651 52.6033C23.4403 52.4325 23.4211 52.2591 23.4016 52.0857C22.56 44.2255 25.0005 36.3654 30.2106 30.1558C30.3569 29.9824 30.5033 29.809 30.6552 29.6382C33.5088 26.3759 37.0535 23.7039 41.0652 21.7911C45.0769 19.8784 49.4684 18.7665 53.962 18.5257C54.1718 18.5154 54.3817 18.505 54.5943 18.4999C55.0001 18.4843 55.4087 18.4766 55.8202 18.4766C60.4119 18.474 64.952 19.3837 69.1412 21.1457C73.3304 22.9077 77.0735 25.482 80.1238 28.6988C80.3143 28.8955 80.4993 29.0922 80.676 29.294C80.7837 29.4079 80.8858 29.5218 80.9853 29.6382C81.1371 29.809 81.2834 29.9824 81.4298 30.1558C86.0724 35.6803 88.5336 42.5396 88.3962 49.5708C88.2588 56.602 85.5313 63.3722 80.676 68.7337C80.4993 68.9356 80.3143 69.1322 80.1238 69.3289C78.4426 71.0993 76.547 72.6799 74.4753 74.0389C59.7503 83.698 39.4589 80.3403 29.1531 66.5392C29.131 66.5107 29.1089 66.4822 29.0896 66.4538C29.0666 66.4266 29.0454 66.398 29.0261 66.3684C28.946 66.2623 28.8687 66.1562 28.7942 66.0501C25.8938 62.0328 24.0662 57.4211 23.4651 52.6033L23.4651 52.6033ZM29.0896 66.4538C29.0666 66.4266 29.0454 66.398 29.0261 66.3684V66.4538H29.0896Z" fill="#CCCCCC"/>
<path d="M93.9806 82.3684H60.9238C60.5196 82.3679 60.1321 82.2173 59.8463 81.9494C59.5605 81.6815 59.3997 81.3183 59.3993 80.9395V65.843C59.3997 65.4641 59.5605 65.1009 59.8463 64.833C60.1321 64.5652 60.5196 64.4145 60.9238 64.4141H93.9806C94.3848 64.4145 94.7723 64.5652 95.0581 64.833C95.3439 65.1009 95.5047 65.4641 95.5051 65.843V80.9395C95.5047 81.3183 95.3439 81.6815 95.0581 81.9494C94.7723 82.2173 94.3848 82.3679 93.9806 82.3684Z" fill="#CACACA"/>
<path d="M79.42 81.1526C72.1804 81.1526 64.6314 81.0877 61.8148 81.0457C61.4442 81.0385 61.0913 80.8959 60.8314 80.6482C60.5715 80.4005 60.4253 80.0674 60.4238 79.72V65.843C60.424 65.7186 60.4767 65.5993 60.5704 65.5113C60.6641 65.4232 60.7913 65.3735 60.924 65.373H93.9799C94.1126 65.3732 94.2398 65.4226 94.3338 65.5104C94.4277 65.5983 94.4807 65.7174 94.4812 65.8418V75.257C94.475 76.7939 93.8264 78.2674 92.6745 79.3612C91.5226 80.4551 89.9591 81.0822 88.3195 81.1081C85.6945 81.1401 82.5861 81.1526 79.42 81.1526Z" fill="#E4E4E4"/>
<path d="M90.5677 74.0496H63.6709C63.4965 74.0494 63.3264 73.9987 63.1839 73.9045C63.0414 73.8103 62.9333 73.6772 62.8745 73.5233L59.8303 65.5184C59.7849 65.3989 59.7707 65.271 59.789 65.1453C59.8073 65.0196 59.8575 64.8999 59.9354 64.7962C60.0134 64.6925 60.1167 64.6078 60.2368 64.5493C60.3569 64.4908 60.4902 64.4602 60.6255 64.46L94.2469 64.416H94.2481C94.388 64.416 94.5257 64.4486 94.6489 64.5107C94.7721 64.5729 94.8769 64.6627 94.9539 64.7722C95.0309 64.8817 95.0777 65.0073 95.0902 65.138C95.1026 65.2686 95.0803 65.4 95.0252 65.5205L94.9791 65.502L95.0252 65.5205L91.3447 73.5694C91.2797 73.712 91.1713 73.8335 91.0332 73.9189C90.895 74.0043 90.7332 74.0497 90.5677 74.0496Z" fill="#CACACA"/>
<path d="M71.4672 79.5976H62.1925C61.9642 79.5973 61.7453 79.5121 61.584 79.3607C61.4226 79.2093 61.332 79.004 61.332 78.79C61.332 78.576 61.4226 78.3708 61.584 78.2194C61.7453 78.0679 61.9642 77.9827 62.1925 77.9824H71.4672C71.6956 77.9827 71.9144 78.0679 72.0757 78.2194C72.2371 78.3708 72.3277 78.576 72.3277 78.79C72.3277 79.004 72.2371 79.2093 72.0757 79.3607C71.9144 79.5121 71.6956 79.5973 71.4672 79.5976Z" fill="#CACACA"/>
<path d="M77.4021 76.0223C78.5653 76.0223 79.5082 75.1385 79.5082 74.0482C79.5082 72.958 78.5653 72.0742 77.4021 72.0742C76.2389 72.0742 75.2959 72.958 75.2959 74.0482C75.2959 75.1385 76.2389 76.0223 77.4021 76.0223Z" fill="#3F3D56"/>
<path d="M10.6473 4.08203C15.8224 0.666188 22.2333 -0.682925 28.4697 0.331477C34.7061 1.34588 40.2572 4.6407 43.9016 9.49112C51.4909 19.5916 59.1062 46.0776 53.7306 61.4211C37.6965 45.5472 13.0633 43.8978 4.87612 35.25C-3.87216 26.0096 -0.129298 11.1951 10.6473 4.08203Z" fill="#EF6430"/>
<path d="M24.7131 26.9535C29.0117 26.9535 32.4965 23.6874 32.4965 19.6584C32.4965 15.6294 29.0117 12.3633 24.7131 12.3633C20.4144 12.3633 16.9296 15.6294 16.9296 19.6584C16.9296 23.6874 20.4144 26.9535 24.7131 26.9535Z" fill="white"/>
<path d="M60.3099 69.3649C63.1254 69.3649 65.4079 67.2256 65.4079 64.5867C65.4079 61.9478 63.1254 59.8086 60.3099 59.8086C57.4944 59.8086 55.2119 61.9478 55.2119 64.5867C55.2119 67.2256 57.4944 69.3649 60.3099 69.3649Z" fill="#EF6430"/>
<path opacity="0.2" d="M16.3861 17.9753C15.8707 18.8026 15.5342 19.717 15.3959 20.6661C15.2575 21.6153 15.32 22.5807 15.5797 23.5073C15.8394 24.4338 16.2913 25.3033 16.9095 26.0662C17.5278 26.8291 18.3003 27.4703 19.183 27.9534C20.0657 28.4364 21.0412 28.7518 22.0539 28.8815C23.0666 29.0111 24.0967 28.9526 25.0852 28.7092C26.0738 28.4657 27.0015 28.0422 27.8155 27.4627C28.6294 26.8833 29.3136 26.1592 29.829 25.3319C28.4397 26.4743 26.662 27.1159 24.814 27.142C22.9661 27.1681 21.1686 26.577 19.7432 25.4744C18.3178 24.3718 17.3576 22.8298 17.0344 21.1243C16.7112 19.4188 17.0461 17.6612 17.9792 16.166C17.3475 16.6846 16.8095 17.2956 16.3861 17.9753Z" fill="#231F20"/>
<path opacity="0.2" d="M4.86101 35.284C13.0482 43.9317 37.6814 45.5812 53.7154 61.4551C54.2159 60.0033 54.6011 58.5189 54.8679 57.0139C38.8418 42.5831 15.58 40.7593 7.66969 32.4041C0.589838 24.9259 1.69193 13.7977 8.08142 6.05469C-0.681669 13.6681 -3.15595 26.816 4.86101 35.284Z" fill="#231F20"/>
<path d="M106.626 65.8382L103.321 64.8945C101.882 66.5205 100.689 71.2306 100.689 71.2306L96.1652 78.1206C95.9231 78.2283 95.7156 78.3939 95.5635 78.6007C95.4114 78.8075 95.3201 79.0482 95.2988 79.2986C95.2775 79.5489 95.3269 79.8001 95.4421 80.0269C95.5574 80.2537 95.7343 80.448 95.9551 80.5903C96.1759 80.7327 96.4328 80.8179 96.7 80.8376C96.9672 80.8573 97.2351 80.8106 97.477 80.7024C97.7188 80.5941 97.9259 80.4281 98.0775 80.2209C98.2291 80.0138 98.3197 79.7729 98.3404 79.5225L105.187 71.7319L106.626 65.8382Z" fill="#FFB6B6"/>
<path d="M106.563 66.5896L107.174 61.8999L105.805 59.7566C105.534 59.3368 105.144 58.9962 104.678 58.7734C104.212 58.5506 103.689 58.4544 103.167 58.4957C102.461 58.5561 101.805 58.8657 101.333 59.3619C100.861 59.858 100.607 60.5037 100.624 61.1683C100.675 63.184 101.014 65.7329 102.336 66.4295L102.35 66.4365L106.563 66.5896Z" fill="#EF6430"/>
<path d="M115.901 108.967L113.919 109.863L109.285 103.124L112.211 101.801L115.901 108.967Z" fill="#FFB6B6"/>
<path d="M116.969 110.872L110.873 113.63L110.836 113.557C110.532 112.968 110.491 112.289 110.721 111.671C110.951 111.053 111.434 110.545 112.063 110.261L112.063 110.26L112.769 108.965L115.254 108.817L115.786 108.576L116.969 110.872Z" fill="#2F2E41"/>
<path d="M101.146 111.479L98.9455 111.478L97.8984 103.521L101.147 103.522L101.146 111.479Z" fill="#FFB6B6"/>
<path d="M101.224 113.63L94.4561 113.63V113.549C94.4561 112.895 94.7337 112.267 95.2277 111.803C95.7217 111.34 96.3918 111.08 97.0904 111.08H97.0906L98.3269 110.201L100.634 111.08L101.224 111.08L101.224 113.63Z" fill="#2F2E41"/>
<path d="M98.9649 74.575L96.4428 90.8763L97.1292 93.0212L96.2285 94.5403L97.5512 105.974L97.0143 107.082L98.5144 107.949H101.567L101.729 95.8712L102.483 94.0979V93.1206L104.018 85.7558L104.372 97.2209L104.862 98.1068C106.687 101.989 109.146 103.259 110.885 106.161L113.937 104.611L113.873 103.455C114.487 103.164 112.953 102.314 112.805 101.685L112.538 100.558L110.757 97.1008L110.69 95.8834L111.177 87.6027L110.948 76.4518L106.943 73.582L98.9649 74.575Z" fill="#2F2E41"/>
<path d="M102.928 56.0415C105.118 56.0415 106.894 54.3773 106.894 52.3245C106.894 50.2716 105.118 48.6074 102.928 48.6074C100.737 48.6074 98.9619 50.2716 98.9619 52.3245C98.9619 54.3773 100.737 56.0415 102.928 56.0415Z" fill="#FFB6B6"/>
<path d="M97.0686 81.6083L97.0107 81.5894L97.7784 79.2512C97.6776 78.9499 97.6584 78.6299 97.7224 78.32C97.7863 78.01 97.9315 77.7198 98.1448 77.4755C98.0207 77.2741 97.5089 76.323 98.3423 75.5149C98.2925 75.2793 98.0419 73.8847 98.9166 73.203C98.9166 73.203 100.614 61.1466 101.566 57.9621C101.593 57.7291 101.37 55.8268 102.651 55.7523C103.326 55.713 104.339 55.6529 105.86 55.561C106.057 55.5477 106.172 55.8587 106.346 56.3648C106.464 56.7071 105.857 57.175 106.004 57.1673L106.014 57.1666L106.024 57.1692C107.443 57.5257 108.687 58.3291 109.548 59.4444C110.409 60.5597 110.834 61.9188 110.752 63.2933L110.3 70.4972C110.368 70.7869 111.808 79.0018 111.432 79.8837C111.218 80.3839 111.582 80.6955 111.848 80.923C111.985 81.0403 112.084 81.1249 112.07 81.2175C112.065 81.243 112.052 81.2667 112.035 81.2866C112.017 81.3064 111.994 81.3217 111.968 81.331C111.727 81.4436 111.86 82.2165 112.001 82.6773L112.015 82.7243L111.968 82.7467C111.915 82.7724 107.611 80.9225 102.383 80.9224C100.412 80.9224 99.2731 82.3291 97.0686 81.6083Z" fill="#EF6430"/>
<path d="M106.071 54.3003C106.03 54.2805 105.994 54.2527 105.965 54.2188C105.936 54.185 105.915 54.1458 105.903 54.1037L105.846 53.888L106.02 54.0577C106.113 53.9856 106.184 53.8917 106.226 53.7856C106.268 53.6795 106.28 53.5649 106.259 53.4534C106.239 53.3419 106.187 53.2373 106.11 53.1504C106.033 53.0634 105.933 52.9971 105.819 52.9581C105.743 52.9341 105.664 52.9163 105.585 52.9046C105.501 52.8921 105.419 52.8736 105.339 52.8491C105.151 52.773 104.99 52.6503 104.871 52.4942C104.753 52.3381 104.682 52.1546 104.667 51.9635C104.641 51.6266 104.681 51.2881 104.784 50.9646C103.034 51.2166 101.25 51.1663 99.5194 50.8163C99.2527 50.7636 98.9973 50.6694 98.7638 50.5377C98.3364 50.3002 97.9806 49.9647 97.7298 49.5627C97.6967 49.5085 97.6829 49.4457 97.6905 49.3837C97.6981 49.3216 97.7268 49.2634 97.7722 49.2177C97.8037 49.1858 97.842 49.1602 97.8845 49.1427C97.927 49.1252 97.9728 49.116 98.0193 49.1157L97.9559 48.955C97.9361 48.9048 97.9309 48.8505 97.9407 48.7978C97.9506 48.7451 97.9752 48.6957 98.012 48.6548C98.0488 48.6139 98.0966 48.5828 98.1504 48.5648C98.2042 48.5468 98.2621 48.5425 98.3183 48.5524L98.5427 48.5917L98.5212 48.4519C98.5131 48.3998 98.5197 48.3467 98.5402 48.2977C98.5608 48.2487 98.5946 48.2056 98.6383 48.1726C98.6821 48.1396 98.7343 48.1179 98.7898 48.1096C98.8452 48.1012 98.902 48.1066 98.9546 48.1252C99.0027 48.1421 99.0543 48.1491 99.1056 48.1456C99.1569 48.1422 99.2068 48.1283 99.2518 48.105C99.2969 48.0817 99.336 48.0495 99.3665 48.0107C99.397 47.9719 99.4182 47.9273 99.4286 47.8801L99.5058 47.5287L99.5135 47.5101C99.8933 46.9172 100.623 46.4862 101.515 46.3275C102.311 46.1862 103.123 46.2576 103.909 46.3266C104.242 46.333 104.57 46.4105 104.866 46.5532C105.001 46.6258 105.111 46.7319 105.184 46.8597C105.258 46.9874 105.292 47.1319 105.284 47.2769C106.057 47.0539 106.888 47.4982 107.298 48.058C107.786 48.7237 107.865 49.5589 107.879 50.2121C107.913 51.7562 107.574 53.0195 106.871 53.967C106.77 54.1278 106.618 54.2548 106.435 54.3296C106.389 54.3442 106.34 54.3516 106.291 54.3514C106.215 54.3517 106.139 54.3341 106.071 54.3003Z" fill="#2F2E41"/>
<path d="M106.213 68.0065L103.302 66.2617C101.449 67.4634 98.9436 71.6968 98.9436 71.6968L92.6035 77.1867C92.3393 77.2292 92.0918 77.3361 91.8858 77.4968C91.6798 77.6574 91.5226 77.8661 91.4299 78.1018C91.3373 78.3375 91.3126 78.5919 91.3582 78.8394C91.4039 79.0869 91.5183 79.3188 91.6899 79.5116C91.8615 79.7045 92.0844 79.8517 92.3359 79.9382C92.5875 80.0247 92.859 80.0476 93.123 80.0045C93.387 79.9615 93.6343 79.854 93.8399 79.6929C94.0455 79.5318 94.2022 79.3227 94.2942 79.0868L103.13 73.3174L106.213 68.0065Z" fill="#FFB6B6"/>
<path d="M105.936 68.7156L107.875 64.3545L107.173 61.9444C107.034 61.4717 106.756 61.045 106.371 60.7126C105.987 60.3801 105.511 60.1551 104.997 60.063C104.299 59.9425 103.579 60.0748 102.981 60.4331C102.384 60.7913 101.954 61.3489 101.778 61.993C101.247 63.9469 100.839 66.4869 101.912 67.4921L101.923 67.5023L105.936 68.7156Z" fill="#EF6430"/>
</g>
<defs>
<clipPath id="clip0_1506_19333">
<rect width="138" height="114" fill="white"/>
</clipPath>
</defs>
</svg>
