<svg width="165" height="98" viewBox="0 0 165 98" fill="none" xmlns="http://www.w3.org/2000/svg">
<path d="M82.1969 24.1857L82.1926 24.2191L82.1809 24.3157L80.9674 34.4055L73.5375 37.5644L73.421 37.4999L69.2612 35.2107L67.1103 25.6475L66.9629 24.991L67.0078 24.971L76.2101 20.9648L82.1915 24.1819L82.1969 24.1857Z" fill="#EF6430"/>
<path d="M73.421 37.4996L69.2612 35.2104L66.9629 24.9907L67.0078 24.9707L73.003 27.9016L73.421 37.4996Z" fill="#EF6430"/>
<path opacity="0.2" d="M73.5251 37.3818L70.3609 30.3555L70.7674 28.3636L68.8534 25.752L68.6904 25.9124L70.5343 28.4284L69.157 35.1807L69.3651 35.2379L70.2858 30.7241L73.3355 37.4964L73.5251 37.3818Z" fill="black"/>
<path d="M82.1969 24.3095L82.1809 24.3157L73.003 28.0259L67.1103 25.6475L66.9629 24.991L67.0078 24.971L76.2101 20.9648L82.1915 24.1819L82.1926 24.2191L82.1969 24.3095Z" fill="#3F3D56"/>
<path d="M73.1629 28.2115L71.292 26.5393L71.7196 24.6811L77.0649 22.4512L80.6997 22.6989L82.143 24.1236L82.2498 24.4951L73.1629 28.2115Z" fill="#EF6430"/>
<path d="M67.0703 24.9899L71.2931 24.8039L73.5806 23.9043L77.1472 22.4502L77.8143 21.3355L76.1499 20.9902L67.0703 24.9899Z" fill="#EF6430"/>
<path d="M75.483 22.9972L73.2812 23.8926L73.352 24.1263L75.5538 23.231L75.483 22.9972Z" fill="#CCCCCC"/>
<path d="M46.4817 8.50977L45.4494 14.49L50.2664 18.6764L52.5029 10.9018L46.4817 8.50977Z" fill="#FFB6B6"/>
<path d="M50.352 13.9913C52.9173 13.9913 54.9969 11.5815 54.9969 8.60891C54.9969 5.63632 52.9173 3.22656 50.352 3.22656C47.7866 3.22656 45.707 5.63632 45.707 8.60891C45.707 11.5815 47.7866 13.9913 50.352 13.9913Z" fill="#FFB6B6"/>
<path d="M40.2882 49.3905C40.3095 51.127 46.8363 70.4533 45.9301 72.9698C44.5016 74.6618 41.4289 83.6678 40.1161 86.0703C39.9442 86.0702 39.084 89.0604 39.084 89.0604C39.084 89.0604 41.1484 92.848 43.3849 91.2532C46.197 83.5892 53.2396 79.3147 53.3641 69.3258C53.704 72.4813 54.7075 92.7358 54.7075 92.7358C54.7075 92.7358 54.515 92.8305 58.8477 93.3115C59.5204 81.556 62.2693 61.5563 56.1152 48.9916C54.223 47.9951 40.2882 49.3905 40.2882 49.3905Z" fill="#2F2E41"/>
<path d="M54.7066 92.3418C54.5054 92.79 53.0631 96.9269 54.3756 97.3417C55.8893 97.8201 57.3566 97.1498 57.3566 97.1498C57.3566 97.1498 60.0064 98.1093 61.628 96.8898C62.3849 96.0129 62.2129 95.2156 61.8516 94.6376C61.6681 94.3528 61.4332 94.1179 61.1632 93.9493C60.8932 93.7806 60.5947 93.6823 60.2885 93.6612C59.4656 93.5933 59.2043 93.4165 59.11 92.9796C58.9724 92.3418 54.7066 92.3418 54.7066 92.3418Z" fill="#2F2E41"/>
<path d="M40.5522 88.7285C40.5522 88.7285 36.8546 90.0815 37.6331 91.66C38.1386 92.6384 38.8768 93.4271 39.7592 93.9319C39.7592 93.9319 40.5304 97.6157 42.671 97.6157C43.7414 97.6157 44.1062 96.911 44.2035 96.2063C44.2475 95.8546 44.2247 95.496 44.1367 95.1555C44.0487 94.815 43.8976 94.5009 43.694 94.2352C43.1536 93.5128 43.0767 93.1737 43.2766 92.7875C43.5685 92.2238 40.5522 88.7285 40.5522 88.7285Z" fill="#2F2E41"/>
<path d="M56.9766 49.9731C56.9766 49.9731 56.2877 51.5678 53.5352 50.9691C50.7828 50.3723 39.9452 50.9691 39.9452 50.9691C39.9452 50.9691 40.5464 36.7165 39.1702 28.1442C37.7939 19.5719 43.2127 14.688 43.2127 14.688L44.9334 12.6941C46.6541 12.4964 50.2876 18.6834 50.2876 18.6834C51.4833 18.9156 52.5995 24.8051 53.5518 30.3779C53.6081 30.6965 53.6611 31.0112 53.7141 31.3259C54.153 33.9243 54.7641 36.8163 55.1301 39.4127C55.1566 39.5969 55.1814 39.7792 55.2046 39.9615C55.6397 43.3332 56.2312 46.6752 56.9766 49.9731Z" fill="#E6E6E6"/>
<path d="M44.9181 5.258C44.9181 5.258 44.0497 3.0441 46.3076 2.03779C46.3076 2.03779 48.2182 -1.58495 52.0394 0.830213C52.0394 0.830213 54.6447 2.03779 54.6447 5.258C54.6447 8.4782 55.5131 9.08199 55.5131 9.08199C55.5131 9.08199 54.2199 7.54459 53.8725 6.33702C53.5251 5.12945 50.8235 4.85548 49.7814 6.06306C48.7393 7.27063 46.1339 7.06937 46.1339 7.06937L46.3076 11.4972C46.3076 11.4972 45.4392 8.88074 45.0918 8.88074C44.7444 8.88074 44.3971 5.258 44.9181 5.258Z" fill="#2F2E41"/>
<path opacity="0.2" d="M55.1303 39.413C51.0265 36.8281 44.3788 31.1592 42.2342 28.0926C39.4072 24.0531 42.4909 20.9826 42.4909 20.9826C45.9869 18.4265 50.1669 27.1965 50.1669 27.1965L53.552 30.3782C53.6083 30.6968 53.6613 31.0115 53.7143 31.3262C54.1532 33.9246 54.7643 36.8165 55.1303 39.413Z" fill="black"/>
<path d="M67.3809 36.4354C67.3809 36.4354 73.482 39.3054 74.4861 36.0792C75.4903 32.8529 69.6692 32.9083 69.6692 32.9083L67.384 33.2835L67.3809 36.4354Z" fill="#FFB6B6"/>
<path d="M41.7082 19.6698C41.7082 19.6698 38.626 22.742 41.4509 26.7802C44.2759 30.8184 57.2587 39.4466 57.2587 39.4466L65.7153 36.7975L68.1085 37.305L68.5598 32.0986L65.0341 32.4974L56.0843 30.2892L50.3773 24.9234C50.3773 24.9234 45.2033 17.115 41.7082 19.6698Z" fill="#E6E6E6"/>
<path opacity="0.2" d="M52.9374 56.6816L53.4767 71.2818L52.1094 56.6816H52.9374Z" fill="black"/>
<path d="M111.154 46.2367L106.259 47.551C105.881 47.6527 105.483 47.5793 105.15 47.3463C104.817 47.1134 104.576 46.7394 104.477 46.3037C104.42 46.051 104.413 45.7866 104.457 45.5303C104.501 45.274 104.594 45.0325 104.729 44.8239C104.865 44.6153 105.04 44.445 105.24 44.3257C105.441 44.2064 105.662 44.1413 105.887 44.1352L110.616 44.0078L111.154 46.2367Z" fill="#FFB9B9"/>
<path d="M110.635 47.0699L109.548 43.2906L116.066 40.7109L114.336 23.0586C117.45 23.7148 118.932 26.5527 118.794 30.2173L119.637 42.2628L110.635 47.0699Z" fill="#3F3D56"/>
<path d="M115.139 19.1663H125.787V13.0301C125.791 11.3729 125.23 9.78077 124.228 8.59934C123.738 8.01729 123.152 7.55495 122.505 7.23966C121.859 6.92437 121.164 6.76252 120.463 6.76368C119.061 6.76667 117.718 7.40854 116.722 8.5505C115.726 9.69246 115.158 11.2427 115.14 12.8662C115.139 12.9224 115.139 12.9758 115.139 13.0301L115.139 19.1663Z" fill="#2F2E41"/>
<path d="M130.24 91.2754L126.836 90.8228L122.762 58.9451L114.336 90.9521L110.653 91.0814L114.838 51.7032L114.225 42.7154L124.66 38.9004C132.05 44.8787 131.897 65.9947 130.24 91.2754Z" fill="#2F2E41"/>
<path d="M119.526 17.9498C121.745 17.9498 123.543 15.8654 123.543 13.2942C123.543 10.723 121.745 8.63867 119.526 8.63867C117.307 8.63867 115.508 10.723 115.508 13.2942C115.508 15.8654 117.307 17.9498 119.526 17.9498Z" fill="#FFB9B9"/>
<path d="M123.543 21.7007L116.735 23.7699C117.882 21.2139 118.249 18.8279 117.628 16.6572L122.427 15.752C122.119 17.8276 122.519 19.9608 123.543 21.7007Z" fill="#FFB9B9"/>
<path d="M125.831 40.6454C122.013 43.4592 117.565 46.6917 114.28 43.5551L112.718 34.7613C111.476 33.4796 112.027 29.5246 113.706 23.8873C113.812 23.5294 113.988 23.2044 114.219 22.9369C114.45 22.6693 114.731 22.4663 115.04 22.3431L117.628 21.3119C118.776 22.4299 120.657 21.7631 122.874 20.2773L125.441 21.0533L126.557 30.7523C124.946 33.5493 125.227 37.2735 125.831 40.6454Z" fill="#3F3D56"/>
<path d="M122.65 44.4262L117.755 45.7405C117.377 45.8421 116.979 45.7687 116.646 45.5358C116.313 45.3029 116.072 44.9288 115.974 44.4931C115.916 44.2404 115.909 43.976 115.953 43.7198C115.997 43.4635 116.09 43.222 116.225 43.0134C116.361 42.8047 116.536 42.6344 116.736 42.5151C116.937 42.3959 117.158 42.3308 117.383 42.3247L122.112 42.1973L122.65 44.4262Z" fill="#FFB9B9"/>
<path d="M129.648 97.3691C129.076 97.6715 128.597 95.7977 128.115 96.3468C126.766 97.8828 123.53 97.5385 123.53 97.5385C123.422 97.498 123.321 97.4324 123.235 97.3456C123.149 97.2589 123.079 97.1528 123.029 97.0337C122.98 96.9147 122.951 96.7852 122.946 96.6531C122.941 96.521 122.959 96.389 122.999 96.2652C123.047 96.1171 123.125 95.9846 123.227 95.8793C123.329 95.7739 123.452 95.6988 123.584 95.6604L125.018 95.2449L127.271 90.6549L129.726 90.2949L129.788 90.4124C130.262 91.2986 130.568 92.292 130.685 93.3261C130.802 94.3602 130.727 95.4114 130.466 96.4094C130.262 97.1673 129.984 97.1915 129.648 97.3691Z" fill="#2F2E41"/>
<path d="M113.465 97.3691C112.894 97.6715 112.415 95.7977 111.933 96.3468C110.584 97.8828 107.348 97.5385 107.348 97.5385C107.239 97.498 107.139 97.4324 107.053 97.3456C106.967 97.2589 106.897 97.1528 106.847 97.0337C106.797 96.9147 106.769 96.7852 106.764 96.6531C106.758 96.521 106.776 96.389 106.816 96.2652C106.864 96.1171 106.943 95.9846 107.045 95.8793C107.146 95.7739 107.269 95.6988 107.401 95.6604L108.836 95.2449L111.088 90.6549L113.543 90.2949L113.605 90.4124C114.08 91.2986 114.385 92.292 114.502 93.3261C114.619 94.3602 114.545 95.4114 114.283 96.4094C114.079 97.1673 113.801 97.1915 113.465 97.3691Z" fill="#2F2E41"/>
<path d="M124.236 9.41134L123.224 13.1419L114.476 12.9617C114.505 11.6565 114.886 10.3947 115.565 9.35256C116.244 8.31044 117.187 7.54005 118.262 7.14899C119.337 6.75794 120.491 6.76576 121.562 7.17137C122.633 7.57697 123.568 8.36009 124.236 9.41134H124.236Z" fill="#2F2E41"/>
<path d="M122.13 45.2591L121.043 41.4798L127.561 38.9001L125.095 20.8652C126.601 21.1825 127.957 22.1213 128.912 23.5077C129.867 24.8941 130.356 26.6344 130.289 28.4065L131.132 40.4519L122.13 45.2591Z" fill="#3F3D56"/>
<path d="M106.563 35.0706L99.7844 36.7599L98.3994 29.0314L100.951 25.0615L103.247 24.5547L105.798 27.5532L106.563 35.0706Z" fill="#CCCCCC"/>
<path d="M103.429 35.4072H99.3466L98.7901 32.2235L98.1807 28.7347L99.0915 27.2148L100.842 27.8481L102.737 30.8898L103.212 33.989L103.245 34.2097L103.429 35.4072Z" fill="#E6E6E6"/>
<path d="M110.281 33.549L105.579 34.1825L106.417 27.2565L108.313 25.2715L109.953 25.7361L111.046 28.6501L110.281 33.549Z" fill="#CCCCCC"/>
<path d="M110.899 29.4518L110.462 32.2402L109.041 41.7413L103.574 43.7697L103.385 43.6507L100.439 41.7835L98.7812 32.219L98.7895 32.2229L103.173 34.2666L103.211 33.9884L103.238 33.7869L103.574 31.3113L105.068 29.4518L110.061 28.0586L110.899 29.4518Z" fill="#E6E6E6"/>
<path d="M107.438 29.1579C108.082 29.1579 108.604 28.5529 108.604 27.8065C108.604 27.0601 108.082 26.4551 107.438 26.4551C106.794 26.4551 106.271 27.0601 106.271 27.8065C106.271 28.5529 106.794 29.1579 107.438 29.1579Z" fill="#E6E6E6"/>
<path d="M104.571 28.5037L101.91 29.0527L101.923 29.1359L104.583 28.5869L104.571 28.5037Z" fill="white"/>
<path d="M103.386 43.6513L100.44 41.7841L98.7818 32.2197L98.7901 32.2235L98.1807 28.7347L99.0915 27.2148L100.842 27.8481L102.737 30.8898L103.212 33.989L103.238 33.7875L103.245 34.2097L103.263 35.4072L103.386 43.6513Z" fill="#F2F2F2"/>
<path d="M100.475 41.795L100.404 41.7732L101.857 35.4584L100.193 32.9163L100.251 32.8652L101.937 35.4402L100.475 41.795Z" fill="#CCCCCC"/>
<path d="M101.296 38.1899L101.23 38.2266L103.542 43.7873L103.608 43.7506L101.296 38.1899Z" fill="#CCCCCC"/>
<path opacity="0.2" d="M110.613 31.6613L110.339 33.4135L110.325 33.4152L109.1 41.6066L103.633 43.6337L103.6 43.6519L103.578 43.5991L100.499 41.6488L100.463 41.6378L100.482 41.555L98.8405 32.0832L98.8489 32.087L98.667 31.0473L98.8029 30.8205L99.2232 30.1194L100.973 30.7529L102.868 33.7936L102.895 33.9744L103.094 35.2717L103.174 35.7929L103.343 36.8939L103.503 35.7109L103.561 35.2852L103.706 34.2159L105.2 32.3577L105.865 32.1723L106.327 32.0431L106.964 31.8657C106.766 31.7267 106.609 31.523 106.512 31.2803C106.414 31.0375 106.381 30.7668 106.417 30.5024C106.453 30.238 106.555 29.9918 106.712 29.795C106.868 29.5982 107.072 29.4597 107.296 29.397C107.521 29.3343 107.756 29.3503 107.973 29.4429C108.19 29.5355 108.378 29.7005 108.513 29.9171C108.649 30.1337 108.726 30.3921 108.735 30.6596C108.744 30.927 108.684 31.1914 108.562 31.4193L110.193 30.9641L110.595 31.6326L110.613 31.6613Z" fill="black"/>
<path d="M103.56 38.7361H99.4778L98.3115 32.0634L99.2227 30.543L100.972 31.1764L102.867 34.2171L103.56 38.7361Z" fill="#E6E6E6"/>
<path d="M109.173 45.07L103.706 47.097L100.571 45.1122L98.9131 35.5466L103.305 37.5948L103.706 34.6385L105.2 32.7803L110.193 31.3867L111.031 32.7803L110.594 35.5677L109.173 45.07Z" fill="#E6E6E6"/>
<path d="M107.569 32.4841C108.213 32.4841 108.735 31.8791 108.735 31.1327C108.735 30.3863 108.213 29.7812 107.569 29.7812C106.925 29.7812 106.402 30.3863 106.402 31.1327C106.402 31.8791 106.925 32.4841 107.569 32.4841Z" fill="#E6E6E6"/>
<path d="M103.52 46.913L100.573 45.0458L98.9156 35.4814L98.9239 35.4852L98.3145 31.9964L99.2253 30.4766L100.976 31.1098L102.87 34.1515L103.346 37.2507L103.372 37.0492L103.379 37.4714L103.397 38.6689L103.52 46.913Z" fill="#F2F2F2"/>
<path d="M100.607 45.1232L100.536 45.1015L101.989 38.7865L100.325 36.2444L100.383 36.1934L102.069 38.7685L100.607 45.1232Z" fill="#CCCCCC"/>
<path d="M101.427 41.518L101.361 41.5547L103.673 47.1154L103.738 47.0787L101.427 41.518Z" fill="#CCCCCC"/>
<path d="M133.869 97.3281H33.4932V97.7119H133.869V97.3281Z" fill="#3F3D56"/>
</svg>
