<svg width="119" height="102" viewBox="0 0 119 102" fill="none" xmlns="http://www.w3.org/2000/svg">
<g clip-path="url(#clip0_1506_19316)">
<path d="M63.4272 85.4966C60.6631 86.572 57.8655 86.0232 57.1787 84.2709C56.4919 82.5186 58.1759 80.2268 60.9411 79.1514C62.0398 78.7067 63.2294 78.5306 64.4104 78.6378L76.1797 74.2285L78.1392 79.7739L66.3287 83.5319C65.533 84.4082 64.538 85.082 63.4272 85.4966Z" fill="#FFB6B6"/>
<path d="M80.3997 37.9004H80.3997C83.2212 37.374 85.9695 39.1131 86.689 41.8812C89.255 51.7545 94.7311 73.1099 94.2381 73.6719C93.5963 74.4035 68.4147 83.6672 68.4147 83.6672L65.0001 77.4696L81.4186 68.1052L76.0785 44.4372C75.4006 41.4325 77.3608 38.4673 80.3997 37.9004Z" fill="#E6E6E6"/>
<path d="M85.6671 37.1666L84.2649 28.4368L93.7301 24.5957L95.1324 37.8649L85.6671 37.1666Z" fill="#FFB6B6"/>
<path d="M84.1139 36.1607L95.0418 33.1836L106.307 37.7637L111.135 75.7787L83.5464 76.6948V70.563C83.5464 70.563 80.7242 64.2941 83.4315 55.9697C86.0754 47.84 80.5576 47.153 80.5576 47.153L84.1139 36.1607Z" fill="#E6E6E6"/>
<path d="M79.0635 51.6177L100.675 50.4727L106.537 67.0756C106.537 67.0756 110.101 78.4114 111.251 85.7396C112.4 93.0678 115.389 101.999 115.389 101.999H80.7905L79.7532 71.7702L79.0635 51.6177Z" fill="#3F3D56"/>
<path d="M95.6166 52.7637H100.905V33.2981H95.6166V52.7637Z" fill="#3F3D56"/>
<path d="M79.293 53.6797H84.5809V37.6493H79.293V53.6797Z" fill="#3F3D56"/>
<path d="M87.805 31.2046C94.4816 31.2046 99.8941 25.8133 99.8941 19.1628C99.8941 12.5124 94.4816 7.12109 87.805 7.12109C81.1283 7.12109 75.7158 12.5124 75.7158 19.1628C75.7158 25.8133 81.1283 31.2046 87.805 31.2046Z" fill="#FFB6B6"/>
<path d="M99.6959 25.6961C99.6959 25.6961 93.8471 18.705 91.5075 19.2876C89.168 19.8702 90.6302 20.7441 90.6302 20.7441L84.7814 14.3356C84.7814 14.3356 80.1023 12.5878 75.7157 18.1225C75.7157 18.1225 73.0837 13.4617 75.7157 10.8401C78.3476 8.21839 79.225 8.50969 79.8099 7.05321C80.3947 5.59673 84.4889 4.43155 84.4889 4.43155C84.4889 4.43155 84.2541 2.33514 85.5413 3.38334C86.8285 4.43155 90.043 4.43155 90.043 4.43155C90.043 4.43155 90.0614 3.26636 91.3694 4.43155C92.6773 5.59673 94.1395 5.01414 94.1395 5.01414L95.1631 7.04174C96.1866 7.05321 98.5344 6.82312 98.8268 7.9883C99.1193 9.15349 100.573 8.50969 100.866 12.0052C101.158 15.5008 99.6959 25.6961 99.6959 25.6961Z" fill="#2F2E41"/>
<path d="M54.8604 43.6686L64.2203 61.2935L62.9372 61.9695L53.5774 44.3446C53.4416 44.0888 53.5398 43.7712 53.7966 43.6359L54.1489 43.4503C54.4058 43.3149 54.7246 43.4128 54.8604 43.6686Z" fill="#3F3D56"/>
<path d="M70.4532 67.9552C68.0719 67.3436 65.5807 68.4265 64.3858 70.5674C62.8895 73.2482 61.1801 75.4475 61.7526 70.206C62.3827 64.4357 58.9842 59.7752 61.655 58.3679C64.3259 56.9607 67.0837 61.2375 71.4245 65.1098C75.4476 68.6987 73.1277 68.6421 70.4532 67.9552Z" fill="#3F3D56"/>
<path d="M57.8203 74.3027L88.9139 57.9195L92.7309 65.107C96.0234 71.307 93.6431 79.0032 87.4187 82.2829L78.8808 86.7815C72.6564 90.0612 64.9298 87.6902 61.6373 81.4902L57.8203 74.3027Z" fill="#EF6430"/>
<path d="M84.1634 85.3141C81.4642 86.5422 78.6402 86.1504 77.8558 84.4393C77.0715 82.7281 78.6238 80.3459 81.3241 79.1177C82.396 78.6124 83.5738 78.3701 84.759 78.4111L96.2616 73.3516L98.5302 78.7788L86.9498 83.1905C86.2046 84.1099 85.2492 84.8381 84.1634 85.3141Z" fill="#FFB6B6"/>
<path d="M107.559 36.8722H107.559C110.409 36.5359 113.034 38.455 113.565 41.265C115.459 51.2877 119.482 72.9614 118.953 73.4891C118.263 74.1761 92.5132 81.7333 92.5132 81.7333L89.5244 75.3211L106.538 67.0769L102.806 43.1049C102.333 40.0617 104.488 37.2344 107.559 36.8722Z" fill="#E6E6E6"/>
</g>
<defs>
<clipPath id="clip0_1506_19316">
<rect width="119" height="102" fill="white"/>
</clipPath>
</defs>
</svg>
