<svg width="115" height="148" viewBox="0 0 115 148" fill="none" xmlns="http://www.w3.org/2000/svg">
<g clip-path="url(#clip0_1506_19282)">
<path d="M22.0138 58.0435C21.8808 57.8227 21.0428 56.4316 20.422 56.5725C19.2451 56.8396 19.8835 62.3757 18.1726 62.9278C17.7971 63.049 17.2686 62.943 16.0882 63.2782C15.6186 63.4115 15.3752 63.5211 15.2996 63.7419C15.1923 64.055 15.5167 64.3183 15.9984 65.0814C16.7209 66.226 16.4987 66.4378 17.1341 67.2582C17.6057 67.8673 17.9759 68.0704 17.9033 68.3376C17.8006 68.7158 16.9932 68.5533 16.7992 68.9868C16.6013 69.4293 17.1759 70.1939 17.6728 70.6613C18.6053 71.5385 19.5346 71.6231 20.3857 71.9107C21.3106 72.2232 22.5754 72.9214 23.8848 74.6671L34.3487 89.704C33.5049 89.3645 31.8606 88.667 29.6178 87.4744C27.726 86.4679 25.8505 85.3224 24.0431 84.0684C23.2638 83.5279 22.5827 83.0247 21.9708 82.5561L22.0329 82.5906L21.734 81.4422C21.6194 80.9858 21.5442 80.6131 21.7033 80.3133C21.7911 80.153 21.9567 79.9874 22.1497 79.7957C22.3709 79.5764 22.6222 79.3281 22.867 78.9833C23.0939 78.6731 23.1455 78.3965 23.0322 78.1647C22.9938 78.0858 22.9432 78.0298 22.89 77.9886C22.9508 77.8863 23.0201 77.7655 23.0818 77.6204C23.2124 77.312 23.2443 77.0481 23.2674 76.8515C23.3622 76.0616 23.2417 75.5962 22.9079 75.4678C22.7668 75.4138 22.6394 75.4384 22.5327 75.4917C22.5248 75.3296 22.5045 75.1389 22.4489 74.9335C22.2698 74.2737 22.0205 73.9393 21.6888 73.9117C21.2254 73.8728 20.9916 74.4165 20.7214 75.0448C20.6003 75.324 20.2825 76.0676 20.1166 76.0683C20.0961 76.0681 20.0375 76.0547 19.9856 76.0426C19.8435 76.0098 19.6291 75.9603 19.2945 75.9504C19.1069 75.9448 18.8236 75.9361 18.6504 76.1827C18.496 76.4192 18.5721 76.6705 18.6423 76.8714C18.6655 76.9377 18.6933 77.0164 18.7211 77.1119C18.7847 77.3296 18.7953 77.447 18.8058 77.5608C18.8193 77.7089 18.8333 77.8626 18.9333 78.1155C18.9417 78.1361 18.9494 78.1552 18.9573 78.174C18.8634 78.1968 18.7649 78.245 18.6823 78.3425C18.371 78.7021 18.6614 79.2975 18.7996 79.5344C19.0482 79.9584 19.3632 80.1621 19.6165 80.3259C19.6804 80.3673 19.7432 80.4078 19.8039 80.4517C20.1182 80.679 20.3789 81.0233 20.5878 81.4663C20.3407 81.2666 20.1044 81.0741 19.8827 80.893C19.0884 80.2442 18.3416 79.6118 17.6136 78.9956C16.865 78.3617 16.1319 77.7413 15.3862 77.1361L15.4332 76.9186L15.4332 76.9185L15.253 77.0296C14.077 76.0802 12.8658 75.1682 11.5059 74.303C11.4502 74.2675 11.3843 74.226 11.3163 74.1837L11.2515 73.935C11.1369 73.4786 11.0617 73.1059 11.2208 72.8061C11.3086 72.6458 11.4742 72.4802 11.6672 72.2885C11.8885 72.0692 12.1397 71.8209 12.3845 71.4761C12.6114 71.1659 12.663 70.8893 12.5497 70.6575C12.5113 70.5786 12.4608 70.5226 12.4075 70.4814C12.4684 70.3791 12.5377 70.2583 12.5993 70.1132C12.7299 69.8048 12.7619 69.5408 12.7849 69.3443C12.8798 68.5544 12.7593 68.089 12.4254 67.9606C12.2843 67.9066 12.1569 67.9313 12.0503 67.9845C12.0424 67.8224 12.022 67.6317 11.9664 67.4263C11.7873 66.7665 11.5381 66.4321 11.2064 66.4045C10.7429 66.3656 10.5091 66.9093 10.2389 67.5376C10.1178 67.8168 9.80005 68.5604 9.63412 68.5611C9.61357 68.5609 9.55504 68.5475 9.50317 68.5354C9.36102 68.5026 9.14663 68.4531 8.81202 68.4432C8.62442 68.4376 8.34118 68.4289 8.16789 68.6755C8.01351 68.9119 8.08967 69.1633 8.1598 69.3642C8.18305 69.4305 8.2108 69.5092 8.23867 69.6047C8.30223 69.8224 8.31285 69.9398 8.32331 70.0536C8.3368 70.2017 8.35084 70.3554 8.45078 70.6083C8.45924 70.6289 8.46695 70.648 8.47482 70.6668C8.38091 70.6896 8.28249 70.7378 8.19977 70.8353C7.88857 71.1949 8.17888 71.7903 8.31714 72.0272C8.56574 72.4512 8.88072 72.6548 9.13406 72.8187C9.19797 72.8601 9.26076 72.9006 9.3214 72.9445C9.49907 73.073 9.65889 73.2405 9.8035 73.4388C9.34221 73.2736 8.80959 73.1375 8.20899 73.0791C7.49121 73.0094 6.76402 73.0608 6.03913 73.2285C6.03405 73.1705 6.02906 73.1136 6.02349 73.0504C5.96187 72.3426 5.91678 72.0489 5.68701 71.7737C5.57546 71.6393 5.40458 71.4915 4.91608 71.3226C4.23898 71.0885 3.65903 71.0531 3.49696 71.0477C2.6875 71.0232 1.98836 71.0022 1.35361 71.5206C1.2325 71.6188 0.864681 71.9163 0.662785 72.4411C0.559437 72.7066 0.540802 72.9222 0.525845 73.0955C0.510064 73.2766 0.500123 73.3964 0.404318 73.5641C0.343848 73.671 0.271099 73.7582 0.213283 73.8283C0.101632 73.9689 -0.108232 74.2262 0.0676544 74.5055C0.109922 74.5731 0.163342 74.6206 0.224058 74.6527C0.191839 74.8896 0.211485 75.1348 0.322041 75.3567C0.421097 75.5563 0.591831 75.6901 1.05182 75.9285C1.75565 76.2938 2.32288 76.4716 2.43554 76.5053C3.1656 76.725 3.53169 76.8352 3.92412 76.8193C4.7592 76.784 5.36585 76.5091 5.72711 76.0017C5.74532 75.977 5.76218 75.9517 5.77831 75.9264L5.77828 75.9264C6.0315 75.5279 6.05895 75.1109 6.10271 74.4469C6.11098 74.3187 6.10852 74.1709 6.09794 73.9826C6.78268 73.8136 7.46887 73.756 8.14428 73.8216C9.60631 73.9638 10.6452 74.6248 11.1442 74.9427C12.3868 75.7333 13.5072 76.5679 14.5936 77.4361L14.4627 77.5168C14.0759 77.7503 13.7554 77.922 13.4419 77.8347C13.2736 77.7852 13.0807 77.6571 12.8571 77.5076C12.6011 77.336 12.3112 77.1409 11.9349 76.977C11.5948 76.8227 11.3296 76.8398 11.1471 77.015C11.085 77.0745 11.0468 77.1406 11.0228 77.2057C10.9142 77.1692 10.7865 77.1286 10.6386 77.1022C10.3245 77.0463 10.0759 77.0804 9.891 77.1065C9.14719 77.2095 8.75374 77.4513 8.72144 77.8267C8.70798 77.9853 8.7628 78.1099 8.83835 78.2059C8.69269 78.2551 8.5241 78.3244 8.35101 78.4336C7.7953 78.7849 7.55381 79.1257 7.61281 79.4733C7.6949 79.9591 8.24961 80.0613 8.89066 80.1793C9.17574 80.2329 9.93389 80.3706 9.97656 80.5408C9.98158 80.562 9.98424 80.6255 9.98636 80.6818C9.9925 80.8361 10.0019 81.0688 10.0777 81.415C10.1201 81.609 10.184 81.9021 10.4527 82.0175C10.7073 82.1161 10.917 81.9741 11.0822 81.8512C11.1367 81.8105 11.2014 81.762 11.2814 81.7092C11.4636 81.5887 11.5679 81.548 11.6689 81.5084C11.8004 81.457 11.9369 81.4035 12.142 81.2368C12.1586 81.2229 12.1741 81.2101 12.1892 81.1972C12.2338 81.2879 12.3026 81.3768 12.4125 81.4369C12.8191 81.6653 13.2879 81.2162 13.4687 81.0141C13.792 80.6513 13.8976 80.2762 13.9827 79.9744C14.0042 79.8983 14.0252 79.8235 14.0498 79.7501C14.2044 79.2883 14.5271 78.8612 15.0093 78.4803L15.1136 78.3979L15.2132 77.9366C15.8678 78.4726 16.516 79.0199 17.176 79.5787C17.9065 80.1976 18.6567 80.8324 19.4542 81.4839C20.5116 82.3475 21.8272 83.4223 23.6594 84.6932C25.4887 85.962 27.3874 87.1219 29.3034 88.141C31.0099 89.0485 32.3766 89.674 33.3144 90.0753C30.5818 90.2693 26.8018 90.4997 25.0935 90.5323C24.4292 90.5449 23.7447 90.5341 23.2569 90.0462C22.7872 89.5764 22.5563 88.7212 21.8729 87.8282C21.7931 87.7239 21.5674 87.4366 21.3677 87.4874C21.2026 87.5293 21.2056 87.7642 21.052 87.8058C20.8459 87.8617 20.6733 87.4845 20.2468 87.1298C19.9461 86.8797 19.6721 86.7678 19.4364 86.6716C19.3653 86.6427 18.3005 86.2161 18.105 86.5264L18.105 86.5264C17.9581 86.7595 18.429 87.2064 18.2892 87.4035C18.1499 87.5999 17.6338 87.2244 16.8552 87.2554C16.7147 87.261 15.8298 87.2963 15.7158 87.6604C15.4998 88.3507 18.2434 89.6154 18.0049 90.6662C17.9526 90.8968 17.7511 91.1416 17.5655 91.8534C17.4917 92.1366 17.4721 92.295 17.5523 92.3981C17.6662 92.5444 17.8815 92.4513 18.3733 92.4205C19.1109 92.3743 19.1447 92.5511 19.7073 92.4568C20.125 92.3868 20.3257 92.2525 20.4283 92.3675C20.5735 92.53 20.2654 92.9039 20.4098 93.1301C20.5573 93.3608 21.0765 93.2821 21.436 93.158C22.1106 92.9252 22.4179 92.4654 22.7964 92.1049C23.2077 91.7132 23.8954 91.2555 25.0803 91.077L33.4673 90.1402C33.9577 90.3477 34.319 90.4896 34.5294 90.572C34.6414 90.6158 34.7134 90.6432 34.7432 90.6575L34.8543 90.4306L34.9788 90.6095C34.9402 90.5512 34.8978 90.4869 34.8571 90.425L34.9044 90.3284L35.2256 90.1771C35.1824 90.0728 35.135 90.0271 35.0069 89.9683L35.6516 89.8963C35.4566 89.9131 35.222 89.932 34.9711 89.9519C34.9183 89.9291 34.8534 89.9037 34.7724 89.8719C34.678 89.835 34.5499 89.7847 34.3966 89.7232C31.8529 85.8296 26.6209 77.5799 24.6734 74.2034C24.064 73.1469 23.4703 72.0369 23.7319 70.8184C23.9837 69.6452 24.9981 68.5127 25.6634 66.6193C25.7411 66.3982 25.95 65.7797 25.6998 65.5038C25.4929 65.2758 25.1607 65.4896 24.9645 65.2797C24.7014 64.9982 25.0857 64.385 25.212 63.3837C25.3011 62.6777 25.2167 62.1376 25.1441 61.6732C25.1222 61.5331 24.7828 59.4417 24.1662 59.4036L24.1661 59.4036C23.7029 59.375 23.4846 60.5298 23.079 60.4804C22.675 60.4313 22.7511 59.2676 22.0138 58.0435L22.0138 58.0435Z" fill="#F2F2F2"/>
<path d="M107.732 106.666L32.8292 95.675C30.3223 95.3075 28.2533 93.4005 27.5577 90.817L10.3546 26.8945C9.77164 24.7279 10.2068 22.4846 11.5486 20.739C12.8903 18.9935 14.8726 18.0913 16.9894 18.2629L92.4541 24.4009C95.1842 24.6229 97.4761 26.6639 98.1574 29.4794L114.799 98.2548C115.33 100.45 114.799 102.769 113.378 104.46C112.155 105.917 110.42 106.73 108.611 106.73C108.32 106.73 108.026 106.709 107.732 106.666Z" fill="#E6E6E6"/>
<path d="M88.7903 92.3643L65.0329 88.8782C64.2378 88.7617 63.5815 88.1568 63.3609 87.3374L57.9045 67.0627C57.7196 66.3755 57.8576 65.6639 58.2832 65.1103C58.7087 64.5566 59.3375 64.2705 60.0089 64.3249L83.9445 66.2718C84.8104 66.3422 85.5374 66.9896 85.7535 67.8826L91.0317 89.6965C91.2001 90.3926 91.0317 91.1284 90.581 91.6648C90.193 92.1267 89.6428 92.3847 89.0692 92.3847C88.9767 92.3847 88.8835 92.3779 88.7903 92.3643Z" fill="white"/>
<path d="M86.6647 36.1147L42.5627 31.805C41.4509 31.6963 40.5855 31.1538 40.6339 30.5957C40.6823 30.0377 41.6264 29.6722 42.7382 29.7808L86.8402 34.0906C87.952 34.1993 88.8169 34.7415 88.7686 35.2996C88.7202 35.8576 87.7765 36.2234 86.6647 36.1147Z" fill="white"/>
<path d="M89.0698 48.4214L44.9678 44.1116C43.856 44.0029 42.9907 43.4604 43.039 42.9024C43.0874 42.3443 44.0315 41.9788 45.1433 42.0875L89.2453 46.3972C90.3572 46.5059 91.2221 47.0481 91.1737 47.6062C91.1253 48.1643 90.1817 48.53 89.0698 48.4214Z" fill="white"/>
<path d="M89.9194 59.146L45.8174 54.8362C44.7056 54.7276 43.8403 54.1851 43.8887 53.627C43.937 53.0689 44.8811 52.7034 45.9929 52.8121L90.0949 57.1219C91.2068 57.2305 92.0717 57.7728 92.0233 58.3308C91.9749 58.8889 91.0313 59.2546 89.9194 59.146Z" fill="white"/>
<path d="M63.3453 53.9657C64.4523 52.6853 65.9719 52.2538 66.7393 53.0019C67.5067 53.7499 67.2313 55.394 66.1238 56.6746C65.688 57.1926 65.1417 57.5923 64.5305 57.8402L59.7757 63.2024L57.4531 60.7799L62.3871 55.751C62.5676 55.0832 62.8962 54.471 63.3453 53.9657Z" fill="#FFB6B6"/>
<path d="M36.2378 55.159C36.2378 55.159 39.0163 52.4609 42.3411 54.8165C45.666 57.1722 53.4086 63.1975 53.4086 63.1975L58.8339 56.054L63.1091 60.1678C63.1091 60.1678 55.568 74.2693 50.6959 71.1658C45.8239 68.0622 34.9472 59.2026 35.4411 57.3695C35.9349 55.5364 36.2378 55.159 36.2378 55.159V55.159Z" fill="#EF6430"/>
<path d="M56.811 120.971L52.3842 129.728L48.7382 125.044L52.9323 119.027L56.811 120.971Z" fill="#FFB6B6"/>
<path d="M53.9486 128.518L52.0755 139.263C52.0755 139.263 50.8183 142.989 48.7975 139.204C46.7768 135.419 43.1176 127.588 45.2213 126.153C47.3249 124.718 49.8656 123.559 49.8656 123.559L53.9486 128.518H53.9486Z" fill="#2F2E41"/>
<path d="M59.4229 130.508L64.0933 139.433L58.2553 140.177L55.6865 132.987L59.4229 130.508Z" fill="#FFB6B6"/>
<path d="M34.6699 49.6875C34.6699 49.6875 34.2028 54.6458 33.5023 55.1416C32.8017 55.6375 41.6792 55.1416 41.6792 55.1416L39.1068 49.6875H34.6699Z" fill="#FFB6B6"/>
<path d="M44.2434 56.6333L40.9758 53.9023H32.9864L27.665 58.6127L31.0511 75.347L29.4165 83.5282L50.1999 84.272L46.4635 76.8345C46.4635 76.8345 50.9005 71.8762 49.4993 68.6533C48.0982 65.4304 44.2434 56.6333 44.2434 56.6333Z" fill="#EF6430"/>
<path d="M48.098 82.2891L51.1338 84.0245C51.1338 84.0245 67.4803 100.387 66.0792 105.345C64.678 110.304 55.3372 124.435 55.3372 124.435L50.9002 121.956L57.4389 106.833L44.9454 93.5692L51.6519 106.12L61.1752 132.616L55.5707 135.095L41.0923 104.106C41.0923 104.106 29.1827 95.4286 28.4822 89.9744C27.7816 84.5203 29.4162 83.5286 29.4162 83.5286L48.098 82.2891Z" fill="#2F2E41"/>
<path d="M63.9772 137.326L71.6834 145.012C71.6834 145.012 74.0186 148.234 69.8153 147.987C65.6119 147.739 57.2051 146.747 57.2051 144.02C57.2051 141.293 57.6721 138.318 57.6721 138.318L63.9772 137.326Z" fill="#2F2E41"/>
<path d="M37.0058 50.9276C39.9721 50.9276 42.3768 48.3747 42.3768 45.2255C42.3768 42.0763 39.9721 39.5234 37.0058 39.5234C34.0394 39.5234 31.6348 42.0763 31.6348 45.2255C31.6348 48.3747 34.0394 50.9276 37.0058 50.9276Z" fill="#FFB6B6"/>
<path d="M60.3058 67.9769L55.8793 82.2883C55.7614 82.6698 55.4549 82.9511 55.0823 83.0199L46.6171 84.5828C45.858 84.723 45.2307 83.956 45.4679 83.1777L49.8885 68.6719C50.0078 68.2804 50.3251 67.9941 50.7083 67.9321L59.1793 66.5636C59.9336 66.4418 60.5438 67.2073 60.3058 67.9769Z" fill="white"/>
<path d="M46.4375 84.8469C46.0772 84.8469 45.735 84.6834 45.4925 84.3869C45.2012 84.0307 45.1089 83.5499 45.2456 83.1013L49.6662 68.5953C49.8138 68.1113 50.1997 67.7632 50.6733 67.6869L59.1442 66.3183C59.5787 66.2479 60.0086 66.419 60.293 66.7757C60.5771 67.1323 60.6649 67.6102 60.5276 68.054L56.1012 82.3653C55.9561 82.8347 55.581 83.179 55.1224 83.264L46.6571 84.8268C46.5836 84.8403 46.5102 84.8469 46.4375 84.8469L46.4375 84.8469ZM59.3354 66.7987C59.2954 66.7987 59.2549 66.8018 59.2144 66.8083L50.7434 68.177C50.4457 68.2249 50.2033 68.4438 50.1107 68.7478L45.7016 83.216C45.6207 83.4816 45.6471 83.7799 45.8025 84.005C45.9842 84.2681 46.2797 84.3921 46.5771 84.3382L49.974 83.7111C53.3809 83.0821 56.1835 80.51 57.2623 77.022L60.0755 67.9264C60.1464 67.6973 60.1376 67.442 60.0257 67.2321C59.8784 66.9561 59.6159 66.7987 59.3354 66.7987Z" fill="#3F3D56"/>
<path d="M47.3841 79.1261C49.02 79.1904 50.3148 80.1387 50.2761 81.244C50.2374 82.3492 48.8799 83.1928 47.2435 83.1282C46.5894 83.112 45.9486 82.9296 45.3745 82.5965L38.4463 82.2311L38.6771 78.7832L45.4826 79.5095C46.0785 79.2223 46.7305 79.0909 47.3841 79.1261Z" fill="#FFB6B6"/>
<path d="M28.9495 57.9922C28.9495 57.9922 32.6858 58.488 33.1528 62.7026C33.6199 66.9171 34.3205 77.0817 34.3205 77.0817L42.9608 76.8338L42.7833 82.9565C42.7833 82.9565 27.7818 86.0066 26.8478 80.0567C25.9137 74.1067 25.2131 59.5714 26.8478 58.7818C28.4824 57.9922 28.9495 57.9922 28.9495 57.9922Z" fill="#EF6430"/>
<path d="M77.4678 18.1999L75.5459 17.2334C76.3342 18.4013 77.0134 20.2253 77.377 21.6767C77.9927 20.3247 78.9852 18.6704 79.9677 17.6823L77.9365 18.237C79.1881 11.7248 83.8957 7.04968 89.2866 7.04968L89.3629 6.81445C83.732 6.81445 78.7457 11.4248 77.4678 18.1999V18.1999Z" fill="#3F3D56"/>
<path d="M86.3135 28.122H74.1704C73.6554 28.122 73.2363 27.6771 73.2363 27.1303C73.2363 26.5835 73.6554 26.1387 74.1704 26.1387H86.3135C86.8286 26.1387 87.2476 26.5835 87.2476 27.1303C87.2476 27.6771 86.8286 28.122 86.3135 28.122Z" fill="#EF6430"/>
<path d="M58.7097 70.1904L50.7467 70.9028C50.5459 70.9207 50.3688 70.7619 50.3519 70.5488C50.335 70.3357 50.4846 70.1477 50.6853 70.1298L58.6484 69.4174C58.8491 69.3994 59.0261 69.5582 59.0431 69.7713C59.06 69.9844 58.9105 70.1725 58.7097 70.1904Z" fill="#3F3D56"/>
<path d="M58.0086 72.6689L50.0455 73.3813C49.8448 73.3993 49.6677 73.2404 49.6507 73.0273C49.6338 72.8142 49.7834 72.6262 49.9842 72.6083L57.9472 71.8959C58.148 71.878 58.325 72.0367 58.3419 72.2498C58.3588 72.4629 58.2093 72.651 58.0086 72.6689Z" fill="#3F3D56"/>
<path d="M57.3074 75.1474L49.3443 75.8598C49.1436 75.8778 48.9665 75.719 48.9495 75.5058C48.9326 75.2927 49.0822 75.1048 49.283 75.0868L57.246 74.3744C57.4468 74.3565 57.6238 74.5152 57.6407 74.7283C57.6576 74.9415 57.5081 75.1295 57.3074 75.1474Z" fill="#3F3D56"/>
<path d="M35.5682 47.275L39.3256 42.6948L38.6993 40.7628L40.7164 42.7978L41.7575 42.4975C41.7575 42.4975 41.7486 38.5752 38.7984 38.398C35.8483 38.2208 33.732 38.5507 33.732 38.5507C33.732 38.5507 29.5138 39.9541 29.3489 41.0296C29.184 42.1051 26.8208 43.5342 26.8208 43.5342C26.8208 43.5342 24.7705 45.1534 25.729 47.8674C26.6874 50.5814 28.8746 53.9691 27.3606 55.6206C25.8466 57.272 23.7072 58.5431 24.7496 59.177C30.3258 60.5808 27.6724 56.839 29.3848 58.0272C31.0972 59.2155 33.9908 63.9881 36.7051 61.5232C39.4194 59.0584 39.9213 56.2036 39.9213 56.2036L35.5895 51.6588C35.5895 51.6588 32.9652 46.9065 35.5682 47.275Z" fill="#2F2E41"/>
<path d="M95.2831 1.14585H83.4793C83.1818 1.14585 82.9396 0.888787 82.9396 0.572863C82.9396 0.25694 83.1818 0 83.4794 0H95.2831C95.5806 0 95.8227 0.256942 95.8227 0.572866C95.8227 0.88879 95.5806 1.14585 95.2831 1.14585H95.2831Z" fill="#3F3D56"/>
<path d="M101.617 7.25913H77.1454C76.8478 7.25913 76.6057 7.00207 76.6057 6.68614C76.6057 6.37022 76.8478 6.11328 77.1454 6.11328H101.617C101.915 6.11328 102.157 6.37022 102.157 6.68615C102.157 7.00207 101.915 7.25913 101.617 7.25913Z" fill="#3F3D56"/>
</g>
<defs>
<clipPath id="clip0_1506_19282">
<rect width="115" height="148" fill="white"/>
</clipPath>
</defs>
</svg>
